<svg xmlns="http://www.w3.org/2000/svg" viewBox="0 0 55.78 55.78"><defs><style>.cls-1{fill:#ffcbcb;}</style></defs><title>Asset 5logo</title><g id="Layer_2" data-name="Layer 2"><g id="Layer_1-2" data-name="Layer 1"><path class="cls-1" d="M54.15,0H47.61A1.63,1.63,0,0,0,46,1.63V3.27H32.51a4.9,4.9,0,0,0-9.24,0H9.81V1.63A1.64,1.64,0,0,0,8.17,0H1.63A1.63,1.63,0,0,0,0,1.63V8.17A1.64,1.64,0,0,0,1.63,9.81H8.17A1.65,1.65,0,0,0,9.81,8.17V6.52H16.6A21.47,21.47,0,0,0,6.69,23.26a4.89,4.89,0,1,0,3.28,0A18.24,18.24,0,0,1,23.5,7.08a4.89,4.89,0,0,0,8.78,0A18.24,18.24,0,0,1,45.82,23.29a4.91,4.91,0,1,0,3.27,0A21.39,21.39,0,0,0,39.18,6.54H46V8.17a1.64,1.64,0,0,0,1.63,1.64h6.54a1.64,1.64,0,0,0,1.63-1.64V1.63A1.63,1.63,0,0,0,54.15,0ZM6.54,6.54H3.27V3.27H6.54Zm1.74,23a1.64,1.64,0,1,1,1.63-1.64A1.64,1.64,0,0,1,8.28,29.53Zm19.61-23A1.64,1.64,0,1,1,29.53,4.9,1.64,1.64,0,0,1,27.89,6.54ZM47.5,26.26a1.64,1.64,0,1,1-1.63,1.63A1.63,1.63,0,0,1,47.5,26.26Zm5-19.72H49.25V3.27h3.27Z"/><path class="cls-1" d="M42.33,33.52,29.25,13.91h0v0a.61.61,0,0,1-.07-.1,1.64,1.64,0,0,0-2.62.1l0,0h0L13.46,33.52a1.65,1.65,0,0,0,.2,2.07,20.67,20.67,0,0,1,5.9,12.08,7.5,7.5,0,0,0-.73.66,8.31,8.31,0,0,0-2.38,5.82,1.63,1.63,0,0,0,1.64,1.63H37.7a1.63,1.63,0,0,0,1.63-1.63A8.27,8.27,0,0,0,37,48.33a7.5,7.5,0,0,0-.73-.66,20.73,20.73,0,0,1,5.9-12.08A1.65,1.65,0,0,0,42.33,33.52ZM27.89,32.8a1.63,1.63,0,1,1-1.63,1.63A1.64,1.64,0,0,1,27.89,32.8ZM20,52.52a5,5,0,0,1,4.62-3.38h6.54a5,5,0,0,1,4.63,3.38Zm13.15-6.4a7.75,7.75,0,0,0-2-.25H24.62a7.68,7.68,0,0,0-2,.25A24.1,24.1,0,0,0,16.9,34.25l9.36-14v9.59a4.91,4.91,0,1,0,3.27,0V20.22l9.36,14A23.93,23.93,0,0,0,33.15,46.12Z"/></g></g></svg>