<svg xmlns="http://www.w3.org/2000/svg" viewBox="0 0 47 58.28"><defs><style>.cls-1{fill:#ffcbcb;}</style></defs><title>Asset 3logo</title><g id="Layer_2" data-name="Layer 2"><g id="Layer_1-2" data-name="Layer 1"><path class="cls-1" d="M47,10.34C47,4.54,36.68,0,23.5,0S0,4.54,0,10.34a4.91,4.91,0,0,0,.09.94H0V47.94c0,5.8,10.32,10.34,23.5,10.34S47,53.74,47,47.94V11.28h-.09A4.91,4.91,0,0,0,47,10.34Zm-1.88,37.6c0,4.09-8.69,8.46-21.62,8.46S1.88,52,1.88,47.94V42.66c3.55,3.69,11.79,6.22,21.62,6.22s18.07-2.53,21.62-6.22Zm0-9.4c0,4.09-8.69,8.46-21.62,8.46S1.88,42.63,1.88,38.54V33.26C5.43,37,13.67,39.48,23.5,39.48S41.57,37,45.12,33.26Zm0-9.4c0,4.09-8.69,8.46-21.62,8.46S1.88,33.23,1.88,29.14V23.86c3.55,3.69,11.79,6.22,21.62,6.22s18.07-2.53,21.62-6.22Zm0-9.4c0,4.09-8.69,8.46-21.62,8.46S1.88,23.83,1.88,19.74V14.46c3.55,3.69,11.79,6.22,21.62,6.22s18.07-2.53,21.62-6.22ZM23.5,18.8c-12.93,0-21.62-4.37-21.62-8.46S10.57,1.88,23.5,1.88s21.62,4.37,21.62,8.46S36.43,18.8,23.5,18.8Z"/></g></g></svg>