<svg xmlns="http://www.w3.org/2000/svg" viewBox="0 0 46.87 56.41"><defs><style>.cls-1{fill:#ffcbcb;}</style></defs><title>Asset 4logo</title><g id="Layer_2" data-name="Layer 2"><g id="Layer_1-2" data-name="Layer 1"><path class="cls-1" d="M46.87,11.13a1.37,1.37,0,0,0-.81-1.24A17.83,17.83,0,0,1,37,.81,1.37,1.37,0,0,0,35.73,0H11.13A1.37,1.37,0,0,0,9.89.81,17.87,17.87,0,0,1,.81,9.89,1.37,1.37,0,0,0,0,11.14V29.76A20.72,20.72,0,0,0,9,46.88l13.63,9.3a1.37,1.37,0,0,0,1.53,0l13.62-9.3a20.71,20.71,0,0,0,9-17.11ZM44.14,29.76a18,18,0,0,1-7.85,14.87L23.43,53.4,10.58,44.63A18,18,0,0,1,2.72,29.76V12A20.63,20.63,0,0,0,12,2.72H34.87A20.61,20.61,0,0,0,44.14,12Z"/></g></g></svg>